<svg width="34" height="34" viewBox="0 0 34 34" fill="none" xmlns="http://www.w3.org/2000/svg">
<path d="M33 18.4414C32.7198 21.474 31.5816 24.3641 29.7188 26.7734C27.856 29.1828 25.3455 31.0117 22.4812 32.0464C19.6168 33.081 16.517 33.2785 13.5445 32.6157C10.572 31.9529 7.84975 30.4572 5.69626 28.3037C3.54277 26.1503 2.04712 23.428 1.38432 20.4555C0.721526 17.483 0.918995 14.3832 1.95362 11.5188C2.98825 8.65448 4.81725 6.14401 7.22659 4.28119C9.63594 2.41837 12.526 1.28025 15.5586 1C13.7831 3.40202 12.9287 6.36151 13.1508 9.34021C13.373 12.3189 14.6568 15.1189 16.769 17.2311C18.8811 19.3432 21.6811 20.627 24.6598 20.8492C27.6385 21.0713 30.598 20.2169 33 18.4414Z" stroke="#866961" stroke-width="2" stroke-linecap="round" stroke-linejoin="round"/>
</svg>
