<svg width="128" height="67" viewBox="0 0 128 67" fill="none" xmlns="http://www.w3.org/2000/svg">
<path d="M37.6172 27.0078H31.5234C31.2891 25.7057 30.8529 24.5599 30.2148 23.5703C29.5768 22.5807 28.7956 21.7409 27.8711 21.0508C26.9466 20.3607 25.9115 19.8398 24.7656 19.4883C23.6328 19.1367 22.4284 18.9609 21.1523 18.9609C18.8477 18.9609 16.7839 19.5404 14.9609 20.6992C13.151 21.8581 11.7188 23.5573 10.6641 25.7969C9.6224 28.0365 9.10156 30.7708 9.10156 34C9.10156 37.2552 9.6224 40.0026 10.6641 42.2422C11.7188 44.4818 13.1576 46.1745 14.9805 47.3203C16.8034 48.4661 18.8542 49.0391 21.1328 49.0391C22.3958 49.0391 23.5938 48.8698 24.7266 48.5312C25.8724 48.1797 26.9076 47.6654 27.832 46.9883C28.7565 46.3112 29.5378 45.4844 30.1758 44.5078C30.8268 43.5182 31.276 42.3854 31.5234 41.1094L37.6172 41.1289C37.2917 43.0951 36.6602 44.9049 35.7227 46.5586C34.7982 48.1992 33.6068 49.6185 32.1484 50.8164C30.7031 52.0013 29.0495 52.9193 27.1875 53.5703C25.3255 54.2214 23.2943 54.5469 21.0938 54.5469C17.6302 54.5469 14.5443 53.7266 11.8359 52.0859C9.1276 50.4323 6.99219 48.069 5.42969 44.9961C3.88021 41.9232 3.10547 38.2578 3.10547 34C3.10547 29.7292 3.88672 26.0638 5.44922 23.0039C7.01172 19.931 9.14714 17.5742 11.8555 15.9336C14.5638 14.2799 17.6432 13.4531 21.0938 13.4531C23.2161 13.4531 25.1953 13.7591 27.0313 14.3711C28.8802 14.9701 30.5404 15.8555 32.0117 17.0273C33.4831 18.1862 34.7005 19.6055 35.6641 21.2852C36.6276 22.9518 37.2786 24.8594 37.6172 27.0078Z" fill="#53473D"/>
<path d="M46.96 23.52C46.2667 23.52 45.68 23.28 45.2 22.8C44.72 22.32 44.48 21.7333 44.48 21.04C44.48 20.3467 44.72 19.76 45.2 19.28C45.68 18.8 46.2667 18.56 46.96 18.56C47.6267 18.56 48.1867 18.8 48.64 19.28C49.12 19.76 49.36 20.3467 49.36 21.04C49.36 21.7333 49.12 22.32 48.64 22.8C48.1867 23.28 47.6267 23.52 46.96 23.52ZM48.72 27.08V49H45.08V27.08H48.72ZM65.6038 26.68C68.2704 26.68 70.4304 27.4933 72.0838 29.12C73.7371 30.72 74.5638 33.04 74.5638 36.08V49H70.9638V36.6C70.9638 34.4133 70.4171 32.7467 69.3238 31.6C68.2304 30.4267 66.7371 29.84 64.8438 29.84C62.9238 29.84 61.3904 30.44 60.2438 31.64C59.1238 32.84 58.5638 34.5867 58.5638 36.88V49H54.9238V27.08H58.5638V30.2C59.2838 29.08 60.2571 28.2133 61.4838 27.6C62.7371 26.9867 64.1104 26.68 65.6038 26.68ZM79.1497 37.96C79.1497 35.72 79.603 33.76 80.5097 32.08C81.4164 30.3733 82.6564 29.0533 84.2297 28.12C85.8297 27.1867 87.6164 26.72 89.5897 26.72C91.2964 26.72 92.883 27.12 94.3497 27.92C95.8164 28.6933 96.9364 29.72 97.7097 31V19.4H101.39V49H97.7097V44.88C96.9897 46.1867 95.923 47.2667 94.5097 48.12C93.0964 48.9467 91.443 49.36 89.5497 49.36C87.603 49.36 85.8297 48.88 84.2297 47.92C82.6564 46.96 81.4164 45.6133 80.5097 43.88C79.603 42.1467 79.1497 40.1733 79.1497 37.96ZM97.7097 38C97.7097 36.3467 97.3764 34.9067 96.7097 33.68C96.043 32.4533 95.1364 31.52 93.9897 30.88C92.8697 30.2133 91.6297 29.88 90.2697 29.88C88.9097 29.88 87.6697 30.2 86.5497 30.84C85.4297 31.48 84.5364 32.4133 83.8697 33.64C83.203 34.8667 82.8697 36.3067 82.8697 37.96C82.8697 39.64 83.203 41.1067 83.8697 42.36C84.5364 43.5867 85.4297 44.5333 86.5497 45.2C87.6697 45.84 88.9097 46.16 90.2697 46.16C91.6297 46.16 92.8697 45.84 93.9897 45.2C95.1364 44.5333 96.043 43.5867 96.7097 42.36C97.3764 41.1067 97.7097 39.6533 97.7097 38Z" fill="black"/>
<path d="M127.301 26.96L113.781 59.36H109.061L113.541 48.64L104.861 26.96H109.941L116.141 43.76L122.581 26.96H127.301Z" fill="#443434"/>
</svg>
