<svg width="26" height="27" viewBox="0 0 26 27" fill="none" xmlns="http://www.w3.org/2000/svg">
<path d="M17.8 8.89478C19.7095 8.89478 21.5409 9.72654 22.8911 11.2071C24.2414 12.6876 25 14.6957 25 16.7895V26H20.2V16.7895C20.2 16.0916 19.9471 15.4222 19.497 14.9287C19.0469 14.4352 18.4365 14.1579 17.8 14.1579C17.1635 14.1579 16.553 14.4352 16.1029 14.9287C15.6528 15.4222 15.4 16.0916 15.4 16.7895V26H10.6V16.7895C10.6 14.6957 11.3585 12.6876 12.7088 11.2071C14.0591 9.72654 15.8904 8.89478 17.8 8.89478V8.89478Z" stroke="#EEE7E1" stroke-width="2" stroke-linecap="round" stroke-linejoin="round"/>
<path d="M5.8 10.2106H1V26H5.8V10.2106Z" stroke="#EEE7E1" stroke-width="2" stroke-linecap="round" stroke-linejoin="round"/>
<path d="M3.4 6.26316C4.72548 6.26316 5.8 5.08496 5.8 3.63158C5.8 2.1782 4.72548 1 3.4 1C2.07452 1 1 2.1782 1 3.63158C1 5.08496 2.07452 6.26316 3.4 6.26316Z" stroke="#EEE7E1" stroke-width="2" stroke-linecap="round" stroke-linejoin="round"/>
</svg>
