<svg width="36" height="33" viewBox="0 0 36 33" fill="none" xmlns="http://www.w3.org/2000/svg">
<path d="M13.2051 27.5771C4.48718 29.7885 4.48718 23.8913 1 23.1541M25.4103 32V26.2944C25.4757 25.5914 25.3633 24.8847 25.0807 24.2212C24.7982 23.5578 24.3518 22.9528 23.7713 22.4465C29.2462 21.9305 35 20.176 35 12.1263C34.9996 10.0679 34.0632 8.08847 32.3846 6.59765C33.1794 4.79679 33.1232 2.80624 32.2277 1.0395C32.2277 1.0395 30.1703 0.523493 25.4103 3.22148C21.414 2.30567 17.2014 2.30567 13.2051 3.22148C8.44513 0.523493 6.38769 1.0395 6.38769 1.0395C5.49214 2.80624 5.43594 4.79679 6.23077 6.59765C4.53971 8.09953 3.60235 10.0969 3.61538 12.1705C3.61538 20.1613 9.36923 21.9157 14.8441 22.4907C14.2705 22.9919 13.828 23.5897 13.5457 24.245C13.2633 24.9004 13.1473 25.5986 13.2051 26.2944V32" stroke="#EEE7E1" stroke-width="2" stroke-linecap="round" stroke-linejoin="round"/>
</svg>
